<svg width="80" height="80" viewBox="0 0 80 80" fill="none" xmlns="http://www.w3.org/2000/svg">
<circle cx="40.0002" cy="40" r="37.9436" fill="white" stroke="#D1D1D1"/>
<circle cx="39.8186" cy="39.8186" r="33.3186" stroke="#D1D1D1"/>
<path d="M39.9834 26.5032C39.9834 26.3453 40.1118 26.217 40.2695 26.217C40.4272 26.217 40.5556 26.3453 40.5556 26.5032C40.5556 26.6612 40.4272 26.7895 40.2695 26.7895C40.1118 26.7895 39.9834 26.6612 39.9834 26.5032Z" fill="#159822" stroke="#159822"/>
<path d="M21.1163 30.4205V29.9587L20.656 29.9221C18.8926 29.7816 17.5 28.3016 17.5 26.5033V21.7862C17.5 21.6281 17.6282 21.5 17.7862 21.5H56.4647C56.6227 21.5 56.7509 21.6281 56.7509 21.7862V26.5033C56.7509 28.3016 55.3583 29.7817 53.5949 29.9221L53.1346 29.9587V30.4205V34.3651C53.1346 37.226 52.3708 40.0333 50.9266 42.4835C49.5245 44.862 47.5199 46.8503 45.1303 48.2327L45.1332 48.2377L45.1296 48.233C42.8057 49.5828 40.032 50.3749 37.1254 50.3749C34.3221 50.3749 31.5657 49.64 29.1519 48.2505L29.151 48.2499L29.1393 48.2432L29.1362 48.2415L29.095 48.2177L29.0945 48.2175C24.3123 45.439 21.1163 40.2651 21.1163 34.3651V30.4205ZM29.1631 48.2579C29.1658 48.2597 29.1669 48.2605 29.1653 48.2594L29.1631 48.2579ZM44.4379 47.9631L44.7008 47.8215V47.5229V40.6545C44.7008 36.4769 41.303 33.0789 37.1254 33.0789C32.9479 33.0789 29.5501 36.4769 29.5501 40.6545V47.5229V47.8215L29.813 47.9631C32.0494 49.1677 34.5671 49.8025 37.1254 49.8025C39.6839 49.8025 42.2016 49.1677 44.4379 47.9631ZM45.2731 46.544V47.514L46.0632 46.9512C50.1039 44.073 52.5623 39.3745 52.5623 34.3651V30.4342V29.9342H52.0623H22.1886H21.6886V30.4342V34.3651C21.6886 39.3745 24.147 44.073 28.1877 46.9512L28.9778 47.514V46.544V40.6545C28.9778 36.1622 32.6333 32.5065 37.1254 32.5065C41.6176 32.5065 45.2731 36.1622 45.2731 40.6545V46.544ZM55.6786 26.2171H56.1786V25.7171V22.5724V22.0724H55.6786H18.5723H18.0723V22.5724V26.5033C18.0723 28.0799 19.3541 29.3618 20.9308 29.3618H20.9543H20.9784H21.0029H21.0279H21.0534H21.0794H21.1059H21.1328H21.1603H21.1882H21.2166H21.2454H21.2747H21.3045H21.3348H21.3655H21.3967H21.4283H21.4604H21.493H21.526H21.5594H21.5933H21.6277H21.6625H21.6978H21.7334H21.7696H21.8061H21.8432H21.8806H21.9185H21.9568H21.9955H22.0346H22.0742H22.1142H22.1546H22.1955H22.2367H22.2784H22.3205H22.363H22.4059H22.4492H22.4929H22.537H22.5816H22.6265H22.6718H22.7175H22.7636H22.8101H22.857H22.9042H22.9519H22.9999H23.0483H23.0971H23.1463H23.1958H23.2457H23.296H23.3467H23.3977H23.4491H23.5008H23.553H23.6054H23.6583H23.7114H23.765H23.8189H23.8731H23.9277H23.9826H24.0379H24.0935H24.1495H24.2057H24.2624H24.3193H24.3766H24.4342H24.4922H24.5505H24.609H24.668H24.7272H24.7868H24.8466H24.9068H24.9673H25.0281H25.0892H25.1506H25.2124H25.2744H25.3367H25.3993H25.4622H25.5255H25.589H25.6527H25.7168H25.7812H25.8458H25.9108H25.976H26.0415H26.1072H26.1733H26.2396H26.3062H26.373H26.4401H26.5075H26.5752H26.6431H26.7112H26.7796H26.8483H26.9172H26.9864H27.0558H27.1255H27.1954H27.2656H27.3359H27.4066H27.4775H27.5486H27.6199H27.6915H27.7633H27.8353H27.9075H27.98H28.0527H28.1256H28.1987H28.2721H28.3456H28.4194H28.4934H28.5675H28.6419H28.7165H28.7913H28.8663H28.9415H29.0168H29.0924H29.1682H29.2441H29.3203H29.3966H29.4731H29.5498H29.6266H29.7037H29.7809H29.8583H29.9359H30.0136H30.0915H30.1696H30.2478H30.3262H30.4047H30.4834H30.5623H30.6413H30.7205H30.7998H30.8793H30.9589H31.0386H31.1185H31.1986H31.2787H31.359H31.4395H31.5201H31.6008H31.6816H31.7625H31.8436H31.9248H32.0062H32.0876H32.1691H32.2508H32.3326H32.4145H32.4965H32.5786H32.6608H32.7431H32.8255H32.908H32.9906H33.0733H33.1561H33.239H33.322H33.405H33.4882H33.5714H33.6547H33.7381H33.8215H33.9051H33.9887H34.0724H34.1561H34.2399H34.3238H34.4077H34.4917H34.5758H34.6599H34.744H34.8283H34.9125H34.9969H35.0812H35.1656H35.2501H35.3346H35.4191H35.5037H35.5883H35.6729H35.7576H35.8423H35.927H36.0118H36.0965H36.1813H36.2661H36.351H36.4358H36.5207H36.6055H36.6904H36.7753H36.8602H36.9451H37.03H37.1149H37.1997H37.2846H37.3695H37.4544H37.5392H37.6241H37.7089H37.7937H37.8785H37.9633H38.0481H38.1328H38.2175H38.3022H38.3868H38.4714H38.556H38.6405H38.725H38.8095H38.8939H38.9783H39.0626H39.1469H39.2311H39.3153H39.3994H39.4835H39.5675H39.6515H39.7354H39.8192H39.9029H39.9866H40.0702H40.1538H40.2373H40.3207H40.404H40.4872H40.5704H40.6535H40.7365H40.8194H40.9022H40.9849H41.0675H41.15H41.2325H41.3148H41.397H41.4792H41.5612H41.6431H41.7249H41.8066H41.8882H41.9697H42.051H42.1322H42.2133H42.2943H42.3752H42.4559H42.5365H42.617H42.6973H42.7775H42.8576H42.9375H43.0173H43.097H43.1765H43.2558H43.335H43.4141H43.4929H43.5717H43.6503H43.7287H43.807H43.8851H43.963H44.0408H44.1184H44.1958H44.2731H44.3502H44.4271H44.5038H44.5803H44.6567H44.7329H44.8089H44.8847H44.9603H45.0357H45.1109H45.186H45.2608H45.3354H45.4099H45.4841H45.5581H45.6319H45.7055H45.7789H45.8521H45.925H45.9978H46.0703H46.1426H46.2147H46.2865H46.3581H46.4295H46.5007H46.5716H46.6423H46.7127H46.783H46.8529H46.9226H46.9921H47.0613H47.1303H47.1991H47.2675H47.3357H47.4037H47.4714H47.5388H47.606H47.6729H47.7396H47.8059H47.872H47.9379H48.0034H48.0687H48.1337H48.1984H48.2628H48.327H48.3908H48.4544H48.5177H48.5807H48.6433H48.7057H48.7678H48.8296H48.8911H48.9523H49.0132H49.0737H49.134H49.1939H49.2535H49.3128H49.3718H49.4305H49.4888H49.5469H49.6046H49.6619H49.719H49.7757H49.832H49.888H49.9437H49.9991H50.0541H50.1088H50.1631H50.217H50.2706H50.3239H50.3768H50.4294H50.4816H50.5334H50.5849H50.636H50.6867H50.7371H50.7871H50.8367H50.886H50.9348H50.9833H51.0315H51.0792H51.1265H51.1735H51.2201H51.2663H51.3121H51.3575H51.4025H51.4471H51.4913H51.5351H51.5785H51.6215H51.6641H51.7062H51.748H51.7894H51.8303H51.8708H51.9109H51.9506H51.9898H52.0287H52.0671H52.105H52.1426H52.1797H52.2163H52.2526H52.2883H52.3237H52.3586H52.3931H52.4271H52.4606H52.4937H52.5264H52.5586H52.5903H52.6216H52.6524H52.6828H52.7127H52.7421H52.7711H52.7996H52.8276H52.8551H52.8822H52.9088H52.9349H52.9605H52.9856H53.0103H53.0344H53.0581H53.0812H53.1039H53.1261H53.1478H53.169H53.1896H53.2098H53.2295H53.2486H53.2673H53.2854H53.303H53.3201C54.5666 29.3618 55.6227 28.5537 56.0146 27.4487L56.2512 26.7816H55.5434H43.4146C43.2501 26.7816 43.1285 26.6548 43.1285 26.5033C43.1285 26.3452 43.2566 26.2171 43.4146 26.2171H55.6786Z" fill="#159822" stroke="#159822"/>
<path d="M32.1221 40.6543C32.1221 37.896 34.3669 35.6511 37.1251 35.6511C39.8833 35.6511 42.1282 37.896 42.1282 40.6543C42.1282 43.4127 39.8833 45.6575 37.1251 45.6575C34.3669 45.6575 32.1221 43.4127 32.1221 40.6543ZM32.6944 40.6543C32.6944 43.0979 34.6815 45.0852 37.1251 45.0852C39.5687 45.0852 41.5559 43.0979 41.5559 40.6543C41.5559 38.2107 39.5687 36.2235 37.1251 36.2235C34.6815 36.2235 32.6944 38.2107 32.6944 40.6543Z" fill="#159822" stroke="#159822"/>
<path d="M35.2666 40.6545C35.2666 39.6301 36.1008 38.7959 37.1251 38.7959C38.1493 38.7959 38.9835 39.6301 38.9835 40.6545C38.9835 41.6789 38.1493 42.5131 37.1251 42.5131C36.1008 42.5131 35.2666 41.6789 35.2666 40.6545ZM35.8389 40.6545C35.8389 41.3641 36.4154 41.9407 37.1251 41.9407C37.8347 41.9407 38.4112 41.3641 38.4112 40.6545C38.4112 39.9449 37.8347 39.3683 37.1251 39.3683C36.4154 39.3683 35.8389 39.9449 35.8389 40.6545Z" fill="#159822" stroke="#159822"/>
<path d="M61.9999 50.1561C61.9999 55.687 57.5164 60.1707 51.9858 60.1707C46.4552 60.1707 41.9717 55.687 41.9717 50.1561C41.9717 44.6252 46.4552 40.1416 51.9858 40.1416C57.5164 40.1416 61.9999 44.6252 61.9999 50.1561Z" fill="white" stroke="#159822" stroke-width="2"/>
<path d="M56.7513 45.9733C56.4015 45.6553 55.8576 45.6802 55.5379 46.0317L50.2958 51.8042L47.7633 49.2295C47.429 48.8909 46.8859 48.8857 46.5482 49.2192C46.2096 49.5518 46.2045 50.0957 46.5379 50.4343L49.708 53.657C49.8705 53.822 50.0904 53.914 50.3207 53.914C50.3259 53.914 50.3319 53.914 50.3371 53.9148C50.5742 53.9097 50.7977 53.8083 50.9566 53.633L56.8097 47.1876C57.1285 46.8352 57.1027 46.2921 56.7513 45.9733Z" fill="#159822"/>
<path d="M77.3652 40C77.3652 60.6362 60.6362 77.3652 40 77.3652C19.3637 77.3652 2.63474 60.6362 2.63474 40C2.63474 19.3637 19.3637 2.63474 40 2.63474C60.6362 2.63474 77.3652 19.3637 77.3652 40ZM40 78.9433C61.5078 78.9433 78.9433 61.5078 78.9433 40C78.9433 18.4922 61.5078 1.05664 40 1.05664C18.4922 1.05664 1.05664 18.4922 1.05664 40C1.05664 61.5078 18.4922 78.9433 40 78.9433Z" fill="#159822" stroke="#159822"/>
</svg>
